{"title":"Hard Drive 2014 HDRIP x264 AC3 TiTAN","uid":11890428,"size":1653369271,"categoryP":"video","categoryS":"movies","magnet":"?xt=urn:btih:4bf2a410e0ab2eb6de49e689d31207097d7ff318&amp;dn=Hard+Drive+2014+HDRIP+x264+AC3+TiTAN&amp;tr=udp%3A%2F%2Ftracker.openbittorrent.com%3A80&amp;tr=udp%3A%2F%2Fopen.demonii.com%3A1337&amp;tr=udp%3A%2F%2Ftracker.coppersurfer.tk%3A6969&amp;tr=udp%3A%2F%2Fexodus.desync.com%3A6969","seeders":4,"leechers":3,"uploader":"xxxlavalxxx","files":3,"time":1430983626,"description":" &lt;a href=&quot;http://extraimago.com/image/2WK&quot; rel=&quot;nofollow&quot; target=&quot;_NEW&quot;&gt;http://extraimago.com/image/2WK&lt;/a&gt;\n &lt;a href=&quot;\nhttp://www.imdb.com/title/tt2514976/&quot; rel=&quot;nofollow&quot; target=&quot;_NEW&quot;&gt;\nhttp://www.imdb.com/title/tt2514976/&lt;/a&gt;\n\n\nOne young man's plunge into adulthood and the uplifting joy of first love.\nStarring Douglas Smith (Big Love), Laura Wiggins (Shameless) and Megan Follows (Anne of Green Gables etc.) HARD DRIVE is the character fueled, psychological love story of Ditch and Debs, two beautiful lost souls who change each others' lives by reclaiming their past and re-imagining their future. Infused with a pulsing music track and powerful performances, HARD DRIVE takes its audience to unexpected places. \n\nDirector: William D. MacGillivray\nWriters: William D. MacGillivray (screenplay), William D. MacGillivray\nStars: Douglas Smith, Laura Wiggins, Megan Follows\nGenres: Drama | Romance\nCountry: USA\nLanguage: English\n\n\nFormat                                   : Matroska\nFormat version                           : Version 2\nFile size                                : 1.54 GiB\nDuration                                 : 1h 25mn\nOverall bit rate mode                    : Variable\nOverall bit rate                         : 2 574 Kbps\nEncoded date                             : UTC 2015-04-03 00:19:52\n\nVideo\nID                                       : 1\nFormat                                   : AVC\nFormat/Info                              : Advanced Video Codec\nFormat profile                           : &lt;a class=&quot;__cf_email__&quot; href=&quot;/cdn-cgi/l/email-protection&quot; data-cfemail=&quot;a5edccc2cde5e9918b94&quot;&gt;[email&amp;#160;protected]&lt;/a&gt;&lt;script cf-hash='f9e31' type=&quot;text/javascript&quot;&gt;\n/* &lt;![CDATA[ */!function(){try{var t=&quot;currentScript&quot;in document?document.currentScript:function(){for(var t=document.getElementsByTagName(&quot;script&quot;),e=t.length;e--;)if(t[e].getAttribute(&quot;cf-hash&quot;))return t[e]}();if(t&amp;&amp;t.previousSibling){var e,r,n,i,c=t.previousSibling,a=c.getAttribute(&quot;data-cfemail&quot;);if(a){for(e=&quot;&quot;,r=parseInt(a.substr(0,2),16),n=2;a.length-n;n+=2)i=parseInt(a.substr(n,2),16)^r,e+=String.fromCharCode(i);e=document.createTextNode(e),c.parentNode.replaceChild(e,c)}}}catch(u){}}();/* ]]&gt; */&lt;/script&gt;\nFormat settings, CABAC                   : Yes\nFormat settings, ReFrames                : 3 frames\nCodec ID                                 : V_MPEG4/ISO/AVC\nDuration                                 : 1h 25mn\nBit rate mode                            : Variable\nBit rate                                 : 2 138 Kbps\nMaximum bit rate                         : 40.0 Mbps\nWidth                                    : 720 pixels\nHeight                                   : 400 pixels\nDisplay aspect ratio                     : 16:9\nFrame rate mode                          : Constant\nFrame rate                               : 23.976 fps\nColor space                              : YUV\nChroma subsampling                       : 4:2:0\nBit depth                                : 8 bits\nScan type                                : Progressive\nBits/(Pixel*Frame)                       : 0.310\nStream size                              : 1.28 GiB (83%)\nDefault                                  : Yes\nForced                                   : No\nColor primaries                          : BT.709\nTransfer characteristics                 : BT.709\nMatrix coefficients                      : BT.709\n\nAudio\nID                                       : 2\nFormat                                   : AC-3\nFormat/Info                              : Audio Coding 3\nMode extension                           : CM (complete main)\nFormat settings, Endianness              : Big\nCodec ID                                 : A_AC3\nDuration                                 : 1h 25mn\nBit rate mode                            : Constant\nBit rate                                 : 384 Kbps\nChannel(s)                               : 6 channels\nChannel positions                        : Front: L C R, Side: L R, LFE\nSampling rate                            : 48.0 KHz\nBit depth                                : 16 bits\nCompression mode                         : Lossy\nStream size                              : 235 MiB (15%)\nLanguage                                 : English\nDefault                                  : Yes\nForced                                   : No\n\n &lt;a href=&quot;\nhttp://extraimago.com/image/2WZ&quot; rel=&quot;nofollow&quot; target=&quot;_NEW&quot;&gt;\nhttp://extraimago.com/image/2WZ&lt;/a&gt; &lt;a href=&quot;\nhttp://extraimago.com/image/2We&quot; rel=&quot;nofollow&quot; target=&quot;_NEW&quot;&gt;\nhttp://extraimago.com/image/2We&lt;/a&gt; &lt;a href=&quot;\nhttp://extraimago.com/image/2W4&quot; rel=&quot;nofollow&quot; target=&quot;_NEW&quot;&gt;\nhttp://extraimago.com/image/2W4&lt;/a&gt; &lt;a href=&quot;\nhttp://extraimago.com/image/2WB&quot; rel=&quot;nofollow&quot; target=&quot;_NEW&quot;&gt;\nhttp://extraimago.com/image/2WB&lt;/a&gt; &lt;a href=&quot;\nhttp://extraimago.com/image/2WC&quot; rel=&quot;nofollow&quot; target=&quot;_NEW&quot;&gt;\nhttp://extraimago.com/image/2WC&lt;/a&gt;","torrent":{"xt":"urn:btih:4bf2a410e0ab2eb6de49e689d31207097d7ff318","amp;dn":"Hard+Drive+2014+HDRIP+x264+AC3+TiTAN","amp;tr":["udp%3A%2F%2Ftracker.openbittorrent.com%3A80","udp%3A%2F%2Fopen.demonii.com%3A1337","udp%3A%2F%2Ftracker.coppersurfer.tk%3A6969","udp%3A%2F%2Fexodus.desync.com%3A6969"],"infoHash":"4bf2a410e0ab2eb6de49e689d31207097d7ff318","infoHashBuffer":{"type":"Buffer","data":[75,242,164,16,224,171,46,182,222,73,230,137,211,18,7,9,125,127,243,24]},"announce":[],"urlList":[]}}